# xmcd CD database file
#
# Track frame offsets:
#	182
#	22862
#	41997
#	56815
#	73090
#	95827
#	110575
#	128870
#	145277
#	169082
#	190597
#	215102
#	239872
#	256880
#
# Disc length: 3687 seconds
#
# Revision: 0
# Processed by: cddbd v1.5.2PL0 Copyright (c) Steve Scherf et al.
# Submitted via: CDex 1.51
#
DISCID=dd0e650e
DTITLE=Tom Mullinix and the Naptown Strutters - Spreadin' the Joy!
DYEAR=1996
DGENRE=Jazz
TTITLE0=Singin' the Blues
TTITLE1=Louisian-i-a
TTITLE2=Keepin' Out of Mischief Now
TTITLE3=I'll Be a Friend With Pleasure
TTITLE4=Wolverine Blues
TTITLE5=Button Down Collar
TTITLE6=Strut, Miss Lizzie
TTITLE7=I'll Take Care of Your Cares
TTITLE8=Fidgety Feet
TTITLE9=Lonesome
TTITLE10=That Old Green River
TTITLE11=Someday You'll Be Sorry
TTITLE12=Drop Me Off in Harlem
TTITLE13=New Orleans
EXTD=YEAR: 1996
EXTT0=
EXTT1=
EXTT2=
EXTT3=
EXTT4=
EXTT5=
EXTT6=
EXTT7=
EXTT8=
EXTT9=
EXTT10=
EXTT11=
EXTT12=
EXTT13=
PLAYORDER=
